# xmcd
#
# Track frame offsets:
#	150
#	10252
#	22409
#	33019
#	43840
#	56071
#	69033
#	79833
#	95925
#	105838
#	119558
#	130255
#	139859
#	150758
#	165398
#	178741
#	190833
#
# Disc length: 2715 seconds
#
# Revision: 0
# Processed by: cddbd v1.5.2PL0 Copyright (c) Steve Scherf et al.
# Submitted via: EasyCDDAExtractor 11.5.3.1
#
DISCID=dc0a9911
DTITLE=Tammy Wynette and George Jones - Duets
DYEAR=1900
DGENRE=
TTITLE0=Something To Brag About
TTITLE1=We Could
TTITLE2=Take Me
TTITLE3=We Loved It Away
TTITLE4=Crying Time
TTITLE5=Southern California
TTITLE6=Just Someone I Used To Know
TTITLE7=My Elusive Dreams
TTITLE8=After Closing Time
TTITLE9=Golden Ring
TTITLE10=Near You
TTITLE11=Did You Ever?
TTITLE12=After The Fire Is Gone
TTITLE13=When I Stop Dreaming
TTITLE14=We're Gonna Hold On
TTITLE15=Two Story House
TTITLE16=Old Fashioned Singing
EXTD=
EXTT0=
EXTT1=
EXTT2=
EXTT3=
EXTT4=
EXTT5=
EXTT6=
EXTT7=
EXTT8=
EXTT9=
EXTT10=
EXTT11=
EXTT12=
EXTT13=
EXTT14=
EXTT15=
EXTT16=
PLAYORDER=
